<svg width="91" height="129" viewBox="0 0 91 129" fill="none" xmlns="http://www.w3.org/2000/svg">
<mask id="mask0_446_111" style="mask-type:luminance" maskUnits="userSpaceOnUse" x="22" y="0" width="47" height="58">
<path d="M22.1084 0H68.9281V57.9653H22.1084V0Z" fill="white"/>
</mask>
<g mask="url(#mask0_446_111)">
<path d="M22.1475 26.8092C22.1475 42.3505 32.6065 57.9376 45.5083 57.9376C58.4101 57.9376 68.87 42.3493 68.87 26.8092C68.87 11.2691 58.4107 0 45.5083 0C32.6059 0 22.1475 11.2685 22.1475 26.8092Z" fill="#4EC2FC"/>
</g>
<path d="M27.304 25.8442C27.3811 25.8442 27.4576 25.8367 27.5332 25.8215C27.6088 25.8065 27.6823 25.7841 27.7538 25.7545C27.8249 25.7252 27.8927 25.6888 27.9567 25.646C28.0209 25.603 28.0804 25.5543 28.1348 25.4999C28.1895 25.4452 28.2382 25.3857 28.2809 25.3217C28.3239 25.2575 28.3601 25.1896 28.3894 25.1185C28.419 25.0471 28.4414 24.9735 28.4563 24.8979C28.4716 24.822 28.479 24.7458 28.479 24.6684C28.479 14.1987 35.2952 6.30093 44.3339 6.30093C44.4098 6.29943 44.4851 6.29047 44.5595 6.27403C44.634 6.25789 44.706 6.23458 44.7759 6.20439C44.8455 6.1739 44.9119 6.13714 44.9746 6.0941C45.0374 6.05107 45.0954 6.00205 45.1486 5.94765C45.2018 5.89326 45.2493 5.83408 45.2911 5.77042C45.3329 5.70676 45.3682 5.63981 45.3969 5.56928C45.4256 5.49874 45.4474 5.42611 45.462 5.3514C45.4767 5.27668 45.4839 5.20106 45.4839 5.12485C45.4839 5.04893 45.4767 4.97332 45.462 4.8986C45.4474 4.82388 45.4256 4.75125 45.3969 4.68072C45.3682 4.61018 45.3329 4.54323 45.2911 4.47957C45.2493 4.41561 45.2018 4.35673 45.1486 4.30234C45.0954 4.24794 45.0374 4.19893 44.9746 4.15589C44.9119 4.11285 44.8455 4.07609 44.7759 4.0456C44.706 4.01542 44.634 3.9921 44.5595 3.97597C44.4851 3.95953 44.4098 3.95056 44.3339 3.94907C44.0285 3.94966 43.7234 3.95833 43.4183 3.97507C43.1135 3.99181 42.8093 4.01691 42.5056 4.04979C42.202 4.08296 41.8996 4.12421 41.5981 4.17352C41.2968 4.22284 40.9968 4.28022 40.6986 4.34568C40.4003 4.41083 40.1039 4.48406 39.8095 4.56535C39.5152 4.64664 39.2229 4.73571 38.9333 4.83255C38.6437 4.92938 38.3569 5.03369 38.0727 5.14607C37.7888 5.25815 37.5078 5.378 37.2302 5.50502C36.9526 5.63234 36.6786 5.76683 36.4081 5.9088C36.1377 6.05077 35.8711 6.19991 35.6084 6.35592C35.3461 6.51193 35.0879 6.67512 34.8341 6.84518C34.5804 7.01494 34.3312 7.19188 34.087 7.37509C33.8426 7.5583 33.6032 7.74809 33.3689 7.94415C33.1349 8.14021 32.906 8.34255 32.6828 8.55087C32.4593 8.75919 32.2417 8.97348 32.0295 9.19346C31.8177 9.41343 31.6118 9.63908 31.4118 9.86981C28.0042 13.7068 26.126 18.9634 26.126 24.6711C26.126 24.7485 26.1337 24.825 26.149 24.9006C26.1642 24.9762 26.1866 25.0498 26.2165 25.1209C26.2461 25.1923 26.2826 25.2599 26.3256 25.3241C26.3686 25.3881 26.4173 25.4476 26.472 25.502C26.5267 25.5564 26.5862 25.6051 26.6504 25.6478C26.715 25.6906 26.7825 25.7264 26.8539 25.7557C26.9254 25.7853 26.9989 25.8074 27.0748 25.8221C27.1504 25.837 27.2269 25.8445 27.304 25.8442Z" fill="white" fill-opacity="0.5"/>
<path d="M45.2396 59.7709C45.2396 57.9202 43.2744 57.5155 43.2744 57.5155H49.1639C49.1639 57.5155 47.1982 57.9202 47.1982 59.7709C47.1982 61.6215 49.1639 62.2742 49.1639 62.2742H43.2744C43.2744 62.2742 45.2396 61.6194 45.2396 59.7709Z" fill="#FC4E4E"/>
<path d="M46.229 60.634C46.2547 60.634 46.2798 60.634 46.3046 60.634C46.4193 60.6215 46.5314 60.5979 46.6411 60.5632C46.751 60.5282 46.8562 60.4828 46.9569 60.4269C47.058 60.3713 47.1521 60.3059 47.2399 60.2311C47.3278 60.1567 47.4073 60.0739 47.4784 59.9837C47.4925 59.9651 47.5044 59.9457 47.5146 59.9248C47.5244 59.9042 47.5325 59.8827 47.5382 59.8602C47.5442 59.8381 47.5477 59.8154 47.5489 59.7924C47.5504 59.7694 47.5495 59.7467 47.5466 59.7236C47.5433 59.7009 47.5379 59.6785 47.5304 59.6567C47.5229 59.6349 47.5134 59.6143 47.5017 59.5942C47.4901 59.5745 47.4766 59.5557 47.4614 59.5386C47.4461 59.5213 47.4294 59.5058 47.4109 59.4917C47.3927 59.478 47.3732 59.4657 47.3523 59.4559C47.3317 59.4457 47.3102 59.4376 47.2881 59.4319C47.2656 59.426 47.2429 59.4224 47.2199 59.4209C47.1972 59.4197 47.1742 59.4203 47.1515 59.4236C47.1285 59.4266 47.1064 59.4319 47.0845 59.4394C47.0627 59.4469 47.0418 59.4565 47.0221 59.4681C47.0021 59.4798 46.9835 59.4932 46.9662 59.5085C46.9489 59.5237 46.9333 59.5404 46.9193 59.5587C46.8377 59.6609 46.7403 59.744 46.6267 59.8085C46.5132 59.8731 46.3915 59.9143 46.2621 59.9323C46.1115 59.9233 45.9696 59.8835 45.836 59.8136C45.7024 59.7437 45.5889 59.6495 45.4953 59.5309C45.4798 59.5141 45.4625 59.4992 45.4436 59.4857C45.4248 59.4726 45.4048 59.4612 45.3839 59.4517C45.3629 59.4424 45.3411 59.4352 45.3187 59.4302C45.2963 59.4248 45.2736 59.4221 45.2506 59.4215C45.2276 59.4206 45.2046 59.4224 45.1818 59.4263C45.1591 59.4302 45.137 59.4361 45.1155 59.4442C45.094 59.4526 45.0737 59.4627 45.0542 59.475C45.0345 59.4872 45.0166 59.5013 44.9998 59.5171C44.9831 59.5327 44.9679 59.55 44.9547 59.5688C44.9413 59.5877 44.9299 59.6074 44.9204 59.6286C44.9111 59.6495 44.9036 59.6713 44.8985 59.6938C44.8935 59.7162 44.8905 59.7389 44.8899 59.7619C44.889 59.7849 44.8908 59.8079 44.8944 59.8306C44.8982 59.8534 44.9042 59.8755 44.9123 59.897C44.9207 59.9185 44.9308 59.9388 44.9428 59.9586C44.955 59.978 44.9691 59.9962 44.9849 60.013C45.0611 60.1053 45.1463 60.1887 45.2401 60.2631C45.3337 60.3375 45.4344 60.4015 45.5413 60.455C45.6483 60.5085 45.7601 60.5503 45.8757 60.5805C45.9917 60.6107 46.1094 60.6286 46.229 60.634Z" fill="#5A7878"/>
<mask id="mask1_446_111" style="mask-type:luminance" maskUnits="userSpaceOnUse" x="43" y="59" width="10" height="70">
<path d="M43.4541 59.8781H52.0989V128.747H43.4541V59.8781Z" fill="white"/>
</mask>
<g mask="url(#mask1_446_111)">
<path d="M46.8723 128.741C46.9315 128.741 46.987 128.727 47.039 128.698C47.2443 128.589 52.0649 125.813 52.0649 112.693C52.0649 105.084 49.3592 99.4823 47.1849 94.9812C45.567 91.632 44.1693 88.7386 44.1693 85.8287C44.1693 82.2521 45.3778 79.847 46.5468 77.52C47.6777 75.2697 48.7451 73.1441 48.7451 70.1299C48.7451 64.0194 46.6132 60.2634 46.5223 60.1062C46.5104 60.0868 46.4969 60.0688 46.4817 60.0521C46.4662 60.0354 46.4494 60.0201 46.4312 60.0067C46.413 59.9932 46.3935 59.9816 46.3732 59.972C46.3526 59.9621 46.3314 59.9547 46.3096 59.949C46.2875 59.9433 46.265 59.94 46.2423 59.9385C46.2199 59.9373 46.1972 59.9382 46.1748 59.9412C46.1524 59.9445 46.1303 59.9496 46.109 59.9571C46.0875 59.9645 46.0669 59.9738 46.0472 59.9852C46.0275 59.9965 46.0092 60.0097 45.9922 60.0246C45.9752 60.0396 45.9596 60.056 45.9456 60.0739C45.9318 60.0919 45.9196 60.1107 45.9094 60.131C45.8993 60.1513 45.8909 60.1726 45.8849 60.1944C45.8786 60.2162 45.8748 60.2383 45.873 60.261C45.8712 60.2837 45.8715 60.3061 45.8742 60.3289C45.8766 60.3513 45.8813 60.3734 45.8882 60.3952C45.8951 60.4167 45.9037 60.4374 45.9148 60.4574C45.936 60.4944 48.0431 64.2199 48.0431 70.1299C48.0431 72.9776 47.0115 75.0306 45.9181 77.2043C44.7126 79.6037 43.4658 82.0859 43.4658 85.8287C43.4658 88.8994 44.8958 91.8595 46.5513 95.2873C48.8061 99.9545 51.3614 105.244 51.3614 112.693C51.3614 125.329 46.7468 128.056 46.7005 128.082C46.6664 128.101 46.6362 128.125 46.6102 128.153C46.5839 128.182 46.563 128.215 46.5477 128.25C46.5322 128.286 46.5229 128.324 46.52 128.362C46.517 128.401 46.5203 128.44 46.5301 128.477C46.54 128.515 46.5555 128.55 46.577 128.583C46.5982 128.615 46.6245 128.643 46.6553 128.667C46.6861 128.691 46.7199 128.709 46.7569 128.722C46.7937 128.735 46.8316 128.741 46.8705 128.741H46.8723Z" fill="#5A7878"/>
</g>
</svg>
