<svg width="69" height="129" viewBox="0 0 69 129" fill="none" xmlns="http://www.w3.org/2000/svg">
<mask id="mask0_454_218" style="mask-type:luminance" maskUnits="userSpaceOnUse" x="0" y="0" width="47" height="58">
<path d="M0.108398 0H46.9281V57.9653H0.108398V0Z" fill="white"/>
</mask>
<g mask="url(#mask0_454_218)">
<path d="M0.147461 26.8092C0.147461 42.3505 10.6065 57.9376 23.5083 57.9376C36.4101 57.9376 46.87 42.3493 46.87 26.8092C46.87 11.2691 36.4107 0 23.5083 0C10.6059 0 0.147461 11.2685 0.147461 26.8092Z" fill="#4EFCC5"/>
</g>
<path d="M5.304 25.8442C5.3811 25.8442 5.4576 25.8367 5.53321 25.8215C5.60881 25.8065 5.68233 25.7841 5.75375 25.7545C5.82488 25.7252 5.89271 25.6888 5.95666 25.646C6.02091 25.603 6.08038 25.5543 6.13477 25.4999C6.18946 25.4452 6.23817 25.3857 6.2809 25.3217C6.32394 25.2575 6.3601 25.1896 6.38938 25.1185C6.41897 25.0471 6.44138 24.9735 6.45632 24.8979C6.47156 24.822 6.47903 24.7458 6.47903 24.6684C6.47903 14.1987 13.2952 6.30093 22.3339 6.30093C22.4098 6.29943 22.4851 6.29047 22.5595 6.27403C22.634 6.25789 22.706 6.23458 22.7759 6.20439C22.8455 6.1739 22.9119 6.13714 22.9746 6.0941C23.0374 6.05107 23.0954 6.00205 23.1486 5.94765C23.2018 5.89326 23.2493 5.83408 23.2911 5.77042C23.3329 5.70676 23.3682 5.63981 23.3969 5.56928C23.4256 5.49874 23.4474 5.42611 23.462 5.3514C23.4767 5.27668 23.4839 5.20106 23.4839 5.12485C23.4839 5.04893 23.4767 4.97332 23.462 4.8986C23.4474 4.82388 23.4256 4.75125 23.3969 4.68072C23.3682 4.61018 23.3329 4.54323 23.2911 4.47957C23.2493 4.41561 23.2018 4.35673 23.1486 4.30234C23.0954 4.24794 23.0374 4.19893 22.9746 4.15589C22.9119 4.11285 22.8455 4.07609 22.7759 4.0456C22.706 4.01542 22.634 3.9921 22.5595 3.97597C22.4851 3.95953 22.4098 3.95056 22.3339 3.94907C22.0285 3.94966 21.7234 3.95833 21.4183 3.97507C21.1135 3.99181 20.8093 4.01691 20.5056 4.04979C20.202 4.08296 19.8996 4.12421 19.5981 4.17352C19.2968 4.22284 18.9968 4.28022 18.6986 4.34568C18.4003 4.41083 18.1039 4.48406 17.8095 4.56535C17.5152 4.64664 17.2229 4.73571 16.9333 4.83255C16.6437 4.92938 16.3569 5.03369 16.0727 5.14607C15.7888 5.25815 15.5078 5.378 15.2302 5.50502C14.9526 5.63234 14.6786 5.76683 14.4081 5.9088C14.1377 6.05077 13.8711 6.19991 13.6084 6.35592C13.3461 6.51193 13.0879 6.67512 12.8341 6.84518C12.5804 7.01494 12.3312 7.19188 12.087 7.37509C11.8426 7.5583 11.6032 7.74809 11.3689 7.94415C11.1349 8.14021 10.906 8.34255 10.6828 8.55087C10.4593 8.75919 10.2417 8.97348 10.0295 9.19346C9.81766 9.41343 9.61176 9.63908 9.41184 9.86981C6.00418 13.7068 4.12598 18.9634 4.12598 24.6711C4.12598 24.7485 4.13375 24.825 4.14899 24.9006C4.16423 24.9762 4.18664 25.0498 4.21652 25.1209C4.24611 25.1923 4.28257 25.2599 4.3256 25.3241C4.36863 25.3881 4.41734 25.4476 4.47203 25.502C4.52672 25.5564 4.58619 25.6051 4.65044 25.6478C4.71499 25.6906 4.78253 25.7264 4.85395 25.7557C4.92537 25.7853 4.99888 25.8074 5.07479 25.8221C5.1504 25.837 5.2269 25.8445 5.304 25.8442Z" fill="white" fill-opacity="0.5"/>
<path d="M23.2396 59.7709C23.2396 57.9202 21.2744 57.5155 21.2744 57.5155H27.1639C27.1639 57.5155 25.1982 57.9202 25.1982 59.7709C25.1982 61.6215 27.1639 62.2742 27.1639 62.2742H21.2744C21.2744 62.2742 23.2396 61.6194 23.2396 59.7709Z" fill="#FC4E4E"/>
<path d="M24.229 60.634C24.2547 60.634 24.2798 60.634 24.3046 60.634C24.4193 60.6215 24.5314 60.5979 24.6411 60.5632C24.751 60.5282 24.8562 60.4828 24.9569 60.4269C25.058 60.3713 25.1521 60.3059 25.2399 60.2311C25.3278 60.1567 25.4073 60.0739 25.4784 59.9837C25.4925 59.9651 25.5044 59.9457 25.5146 59.9248C25.5244 59.9042 25.5325 59.8827 25.5382 59.8602C25.5442 59.8381 25.5477 59.8154 25.5489 59.7924C25.5504 59.7694 25.5495 59.7467 25.5466 59.7236C25.5433 59.7009 25.5379 59.6785 25.5304 59.6567C25.5229 59.6349 25.5134 59.6143 25.5017 59.5942C25.4901 59.5745 25.4766 59.5557 25.4614 59.5386C25.4461 59.5213 25.4294 59.5058 25.4109 59.4917C25.3927 59.478 25.3732 59.4657 25.3523 59.4559C25.3317 59.4457 25.3102 59.4376 25.2881 59.4319C25.2656 59.426 25.2429 59.4224 25.2199 59.4209C25.1972 59.4197 25.1742 59.4203 25.1515 59.4236C25.1285 59.4266 25.1064 59.4319 25.0845 59.4394C25.0627 59.4469 25.0418 59.4565 25.0221 59.4681C25.0021 59.4798 24.9835 59.4932 24.9662 59.5085C24.9489 59.5237 24.9333 59.5404 24.9193 59.5587C24.8377 59.6609 24.7403 59.744 24.6267 59.8085C24.5132 59.8731 24.3915 59.9143 24.2621 59.9323C24.1115 59.9233 23.9696 59.8835 23.836 59.8136C23.7024 59.7437 23.5889 59.6495 23.4953 59.5309C23.4798 59.5141 23.4625 59.4992 23.4436 59.4857C23.4248 59.4726 23.4048 59.4612 23.3839 59.4517C23.3629 59.4424 23.3411 59.4352 23.3187 59.4302C23.2963 59.4248 23.2736 59.4221 23.2506 59.4215C23.2276 59.4206 23.2046 59.4224 23.1818 59.4263C23.1591 59.4302 23.137 59.4361 23.1155 59.4442C23.094 59.4526 23.0737 59.4627 23.0542 59.475C23.0345 59.4872 23.0166 59.5013 22.9998 59.5171C22.9831 59.5327 22.9679 59.55 22.9547 59.5688C22.9413 59.5877 22.9299 59.6074 22.9204 59.6286C22.9111 59.6495 22.9036 59.6713 22.8985 59.6938C22.8935 59.7162 22.8905 59.7389 22.8899 59.7619C22.889 59.7849 22.8908 59.8079 22.8944 59.8306C22.8982 59.8534 22.9042 59.8755 22.9123 59.897C22.9207 59.9185 22.9308 59.9388 22.9428 59.9586C22.955 59.978 22.9691 59.9962 22.9849 60.013C23.0611 60.1053 23.1463 60.1887 23.2401 60.2631C23.3337 60.3375 23.4344 60.4015 23.5413 60.455C23.6483 60.5085 23.7601 60.5503 23.8757 60.5805C23.9917 60.6107 24.1094 60.6286 24.229 60.634Z" fill="#5A7878"/>
<mask id="mask1_454_218" style="mask-type:luminance" maskUnits="userSpaceOnUse" x="21" y="59" width="10" height="70">
<path d="M21.4541 59.8781H30.0989V128.747H21.4541V59.8781Z" fill="white"/>
</mask>
<g mask="url(#mask1_454_218)">
<path d="M24.8723 128.741C24.9315 128.741 24.987 128.727 25.039 128.698C25.2443 128.589 30.0649 125.813 30.0649 112.693C30.0649 105.084 27.3592 99.4823 25.1849 94.9812C23.567 91.632 22.1693 88.7386 22.1693 85.8287C22.1693 82.2521 23.3778 79.847 24.5468 77.52C25.6777 75.2697 26.7451 73.1441 26.7451 70.1299C26.7451 64.0194 24.6132 60.2634 24.5223 60.1062C24.5104 60.0868 24.4969 60.0688 24.4817 60.0521C24.4662 60.0354 24.4494 60.0201 24.4312 60.0067C24.413 59.9932 24.3935 59.9816 24.3732 59.972C24.3526 59.9621 24.3314 59.9547 24.3096 59.949C24.2875 59.9433 24.265 59.94 24.2423 59.9385C24.2199 59.9373 24.1972 59.9382 24.1748 59.9412C24.1524 59.9445 24.1303 59.9496 24.109 59.9571C24.0875 59.9645 24.0669 59.9738 24.0472 59.9852C24.0275 59.9965 24.0092 60.0097 23.9922 60.0246C23.9752 60.0396 23.9596 60.056 23.9456 60.0739C23.9318 60.0919 23.9196 60.1107 23.9094 60.131C23.8993 60.1513 23.8909 60.1726 23.8849 60.1944C23.8786 60.2162 23.8748 60.2383 23.873 60.261C23.8712 60.2837 23.8715 60.3061 23.8742 60.3289C23.8766 60.3513 23.8813 60.3734 23.8882 60.3952C23.8951 60.4167 23.9037 60.4374 23.9148 60.4574C23.936 60.4944 26.0431 64.2199 26.0431 70.1299C26.0431 72.9776 25.0115 75.0306 23.9181 77.2043C22.7126 79.6037 21.4658 82.0859 21.4658 85.8287C21.4658 88.8994 22.8958 91.8595 24.5513 95.2873C26.8061 99.9545 29.3614 105.244 29.3614 112.693C29.3614 125.329 24.7468 128.056 24.7005 128.082C24.6664 128.101 24.6362 128.125 24.6102 128.153C24.5839 128.182 24.563 128.215 24.5477 128.25C24.5322 128.286 24.5229 128.324 24.52 128.362C24.517 128.401 24.5203 128.44 24.5301 128.477C24.54 128.515 24.5555 128.55 24.577 128.583C24.5982 128.615 24.6245 128.643 24.6553 128.667C24.6861 128.691 24.7199 128.709 24.7569 128.722C24.7937 128.735 24.8316 128.741 24.8705 128.741H24.8723Z" fill="#5A7878"/>
</g>
</svg>
