<svg width="300" height="186" viewBox="0 0 300 186" fill="none" xmlns="http://www.w3.org/2000/svg">
<rect y="179" width="300" height="7" fill="#6F6F6F"/>
<rect x="37" y="107" width="226" height="72" fill="#F6C694"/>
<rect x="55" y="35" width="189" height="72" fill="#F6C694"/>
<ellipse cx="59.6" cy="116" rx="22.6" ry="23" fill="#E7707D"/>
<ellipse cx="104.8" cy="116" rx="22.6" ry="23" fill="#E7707D"/>
<ellipse cx="150" cy="116" rx="22.6" ry="23" fill="#E7707D"/>
<ellipse cx="195.2" cy="116" rx="22.6" ry="23" fill="#E7707D"/>
<ellipse cx="240.4" cy="116" rx="22.6" ry="23" fill="#E7707D"/>
<rect x="31" y="91" width="237" height="27" fill="#E7707D"/>
<ellipse cx="73.9352" cy="48.9099" rx="18.8961" ry="19.2305" fill="#E7707D"/>
<ellipse cx="111.727" cy="48.9099" rx="18.8961" ry="19.2305" fill="#E7707D"/>
<ellipse cx="149.52" cy="48.9099" rx="18.8961" ry="19.2305" fill="#E7707D"/>
<ellipse cx="187.311" cy="48.9099" rx="18.8961" ry="19.2305" fill="#E7707D"/>
<ellipse cx="225.104" cy="48.9099" rx="18.8961" ry="19.2305" fill="#E7707D"/>
<rect x="50" y="28" width="199" height="22.6709" fill="#E7707D"/>
<rect x="124" width="7" height="28" fill="#FF4A4A"/>
<rect x="146" width="7" height="28" fill="#FF4A4A"/>
<rect x="168" width="7" height="28" fill="#FF4A4A"/>
</svg>
