<svg width="51" height="11" viewBox="0 0 51 11" fill="none" xmlns="http://www.w3.org/2000/svg">
<path d="M7 8C7 10.002 5.433 11 3.5 11C1.567 11 0 10.002 0 8C0 5.99797 1.567 0 3.5 0C5.433 0 7 5.99797 7 8Z" fill="#FF5F2E"/>
<path d="M29 8C29 10.002 27.433 11 25.5 11C23.567 11 22 10.002 22 8C22 5.99797 23.567 0 25.5 0C27.433 0 29 5.99797 29 8Z" fill="#FF5F2E"/>
<path d="M51 8C51 10.002 49.433 11 47.5 11C45.567 11 44 10.002 44 8C44 5.99797 45.567 0 47.5 0C49.433 0 51 5.99797 51 8Z" fill="#FF5F2E"/>
</svg>
